# xmcd CD database file
#
# Track frame offsets:
#	150
#	16745
#	32852
#	57025
#	77112
#	112580
#	128845
#
# Disc length: 2060 seconds
#
# Revision: 0
# Processed by: cddbd v1.4PL0 Copyright (c) Steve Scherf et al.
# Submitted via: CDex 1.50beta10
#
DISCID=47080a07
DTITLE=Esther Phillips - For all we know
DYEAR=1975
DGENRE=Jazz
TTITLE0=Unforgettable
TTITLE1=For all we know
TTITLE2=Pure natural love
TTITLE3=Fools rush in
TTITLE4=Going out of my head
TTITLE5=Fever
TTITLE6=Caravan
EXTD=YEAR: 1975
EXTT0=
EXTT1=
EXTT2=
EXTT3=
EXTT4=
EXTT5=
EXTT6=
PLAYORDER=
